<?xml version="1.0" encoding="utf-8"?>
<svg xmlns="http://www.w3.org/2000/svg" width="480" height="480" viewBox="0 0 48 48">
  <path fill="#E53935" d="M42,20l-18-9.048L6,20v-5.048l18-9l0,0l18,9V20z" />
  <path fill="#D32F2F" d="M9 21H39V40H9z" />
  <path fill="#D32F2F" d="M20,37.999C20,35.793,21.786,34,24,34s4,1.793,4,3.999C28,40.207,26.214,42,24,42S20,40.207,20,37.999z" />
  <path fill="#4C0808" d="M22,38.002C22,36.9,22.894,36,24,36s2,0.9,2,2.002C26,39.107,25.106,40,24,40S22,39.107,22,38.002z" />
  <path fill="#BCAAA4" d="M36 19L25 21 23 21 12 19 11 22.574 11 38 37 38 37 22.574z" />
  <g>
    <path fill="#E5E2E1" d="M37 19c0 0-12-.146-12 2 0 2.143 0 17 0 17 0-2.145 12-2 12-2V19zM11 19c0 0 12-.146 12 2 0 2.143 0 17 0 17 0-2.145-12-2-12-2V19z" />
  </g>
</svg>