<?xml version="1.0" encoding="utf-8"?>
<svg xmlns="http://www.w3.org/2000/svg" x="0" y="0" viewBox="0 0 128 128" width="512" height="512">
  <path fill="#e8e8f9" d="M28.4,57.5l4.9,3.9c2.4,1.9,3.8,4.8,3.8,7.8l0,49.6c0,2.6,1.9,4.9,4.5,5.2c3,0.3,5.5-2.1,5.5-5V69.3 c0-3.1,1.4-6,3.9-7.9l4.6-3.5c2.7-2.1,4.2-5.4,3.8-8.8L59,37H25l-0.4,12C24.4,52.3,25.8,55.4,28.4,57.5z" />
  <path fill="#e8e8f9" d="M92,119c0,2.8,2.2,5,5,5h0c2.8,0,5-2.2,5-5V9.7c0-3.2-2.6-5.7-5.7-5.7h0c-2.5,0-4.8,1.7-5.5,4.1L73.4,66.5 c-0.8,2.6,0.4,5.5,2.9,6.7L92,81.3V119z" />
  <path fill="#444b54" d="M97,127c-4.4,0-8-3.6-8-8V96.4c0-1.7,1.3-3,3-3s3,1.3,3,3V119c0,1.1,0.9,2,2,2s2-0.9,2-2V9.7 C99,8.2,97.8,7,96.3,7c-1.2,0-2.3,0.8-2.6,1.9L76.2,67.3c-0.4,1.3,0.2,2.6,1.4,3.2l15.8,8.2c1.5,0.8,2,2.6,1.3,4 c-0.8,1.5-2.6,2-4,1.3l-15.8-8.2c-3.7-1.9-5.6-6.2-4.4-10.3L87.9,7.2C89,3.6,92.4,1,96.3,1c4.8,0,8.7,3.9,8.7,8.7V119 C105,123.4,101.4,127,97,127z" />
  <path fill="#444b54" d="M42,127c-4.4,0-8-3.6-8-8V75.4c0-1.7,1.3-3,3-3s3,1.3,3,3V119c0,1.1,0.9,2,2,2s2-0.9,2-2V69.3 c0-4,1.9-7.9,5.1-10.3l4.6-3.5c1.9-1.5,3-3.9,2.7-6.4L51,4.4c-0.2-1.6,1-3.1,2.6-3.3c1.6-0.2,3.1,1,3.3,2.6l5.3,44.7 c0.5,4.5-1.4,9.1-5,11.8l-4.6,3.5C51,65,50,67.1,50,69.3V119C50,123.4,46.4,127,42,127z" />
  <path fill="#444b54" d="M33.4,64.5c-0.7,0-1.3-0.2-1.9-0.7l-5-4c-3.6-2.8-5.4-7.2-4.8-11.7L27,3.6C27.2,2,28.7,0.8,30.4,1 C32,1.2,33.2,2.7,33,4.4l-5.3,44.5c-0.3,2.4,0.7,4.8,2.6,6.3l5,4c1.3,1,1.5,2.9,0.5,4.2C35.2,64.1,34.3,64.5,33.4,64.5z" />
  <path fill="#444b54" d="M42,46c-1.7,0-3-1.3-3-3V4c0-1.7,1.3-3,3-3s3,1.3,3,3v39C45,44.7,43.7,46,42,46z" />
</svg>