<?xml version="1.0" encoding="utf-8"?>
<svg xmlns="http://www.w3.org/2000/svg" viewBox="0 0 48 48" width="480" height="480">
  <path fill="#3f51b5" d="M10,42h28c2.2,0,4-1.8,4-4V15.7c0-1.6-1-3.1-2.6-3.7L24,6L8.6,12C7,12.6,6,14.1,6,15.7V38 C6,40.2,7.8,42,10,42z" />
  <path fill="#e91e63" d="M14.766,27.104c-2.309,2.309-2.36,6-0.115,8.246c2.245,2.244,5.936,2.193,8.246-0.116l5.168-5.169 l-8.129-8.13L14.766,27.104z" />
  <path fill="#00bcd4" d="M33.35,16.651c-2.246-2.245-5.936-2.194-8.246,0.116l-5.169,5.169l8.129,8.129l5.168-5.169 C35.543,22.588,35.595,18.896,33.35,16.651z" />
  <path fill="#00838f" d="M28.065,30.066l-8.13-8.13l0.813-0.813l8.13,8.13L28.065,30.066z" />
  <path fill="#fce4ec" d="M21.044,23.044l-5.284,5.284c0,0-2.957,2.957,0,5.912c0.257,0.256,0.543,0.467,0.847,0.632 c-2.325-2.109,0.631-5.066,0.631-5.066l5.284-5.284L21.044,23.044z" />
  <path fill="#e0f7fa" d="M28.176,18.868c0,0,2.587-2.586,4.804-0.37c-0.165-0.304-0.373-0.591-0.631-0.848 c-3.065-2.848-5.652-0.261-5.652-0.261l-5.653,5.654l1.478,1.478L28.176,18.868z" />
  <path fill="#80deea" d="M22.522,24.522l-1.478-1.478l0.813-0.813l1.478,1.478L22.522,24.522z" />
</svg>